<?xml version="1.0" encoding="UTF-8" standalone="no"?>
<svg width="512px" height="119px" viewBox="0 0 512 119" version="1.1" xmlns="http://www.w3.org/2000/svg" xmlns:xlink="http://www.w3.org/1999/xlink">
    <!-- Generator: Sketch 3.7.2 (28276) - http://www.bohemiancoding.com/sketch -->
    <title>icon</title>
    <desc>Created with Sketch.</desc>
    <defs></defs>
    <g id="Page-1" stroke="none" stroke-width="1" fill="none" fill-rule="evenodd">
        <g id="icon">
            <g id="Group" transform="translate(6.000000, 10.000000)">
                <path d="M5.906844,67.3697038 L5.906844,26.6732283 L21.0319446,53.2995876 L27.0282862,53.2995876 L42.1533868,26.6732283 L42.1533868,67.3697038 L48.0602308,67.3697038 L48.0602308,18.3914511 L40.2739364,18.3914511 L24.0748642,48.0455568 L8.41277782,18.3914511 L0,18.3914511 L0,67.3697038 L5.906844,67.3697038 Z M59.910611,63.3623922 C57.0168396,60.1565269 55.5699756,55.8524205 55.5699756,50.4499438 C55.5699756,44.9880992 57.0466719,40.669151 60.0001086,37.4929696 C62.9535454,34.3167883 67.0554794,32.7287214 72.3060336,32.7287214 C77.5565879,32.7287214 81.6137735,34.3019465 84.4777122,37.4484439 C87.3416509,40.5949414 88.7735987,44.8990478 88.7735987,50.3608924 C88.7735987,55.7040012 87.2819864,60.0081077 84.2987169,63.2733408 C81.3154474,66.538574 77.2284296,68.1711661 72.0375407,68.1711661 C66.8466519,68.1711661 62.8043824,66.5682575 59.910611,63.3623922 L59.910611,63.3623922 Z M64.3854928,41.0104987 C62.506033,43.5039495 61.5663173,46.6503997 61.5663173,50.4499438 C61.5663173,54.2494878 62.506033,57.3662545 64.3854928,59.8003375 C66.2649526,62.2344204 68.9051064,63.4514436 72.3060336,63.4514436 C75.6472954,63.4514436 78.2427009,62.2195786 80.092328,59.7558118 C81.9419551,57.2920449 82.8667547,54.1901199 82.8667547,50.4499438 C82.8667547,46.6503997 81.9270389,43.5039495 80.0475792,41.0104987 C78.1681194,38.5170479 75.58763,37.2703412 72.3060336,37.2703412 C68.9051064,37.2703412 66.2649526,38.5170479 64.3854928,41.0104987 L64.3854928,41.0104987 Z M95.3883672,67.3697038 L95.3883672,19.9943757 L101.205714,19.9943757 L101.205714,34.0644919 C103.532664,32.9958702 106.307063,32.4615673 109.528994,32.4615673 C114.36189,32.4615673 118.299747,33.886375 121.342682,36.736033 C124.504947,39.8825304 126.086057,44.5131553 126.086057,50.6280465 C126.086057,55.9117874 124.728689,60.1416852 122.013914,63.3178665 C119.299139,66.4940479 115.406031,68.0821147 110.334473,68.0821147 C106.993211,68.0821147 103.741496,67.0431925 100.57923,64.9653168 L99.5052585,67.3697038 L95.3883672,67.3697038 Z M117.315288,60.0674916 C119.10525,57.9896159 120.000217,54.7244317 120.000217,50.271841 C120.000217,46.2941933 119.060501,43.1180596 117.181042,40.7433446 C115.301582,38.3686295 112.512267,37.1812898 108.813013,37.1812898 C106.008739,37.1812898 103.472998,37.6265422 101.205714,38.5170604 L101.205714,61.136108 C102.578018,61.8485225 103.816056,62.3679836 104.919866,62.6945069 C106.023675,63.0210303 107.35121,63.1842895 108.90251,63.1842895 C112.721095,63.1842895 115.525326,62.1453672 117.315288,60.0674916 L117.315288,60.0674916 Z M132.969318,25.4710349 C132.253333,24.7289364 131.895346,23.8532734 131.895346,22.8440195 C131.895346,21.8941335 132.253333,21.0481539 132.969318,20.3060555 C133.685303,19.563957 134.58027,19.1929134 135.654247,19.1929134 C136.668559,19.1929134 137.533694,19.563957 138.249678,20.3060555 C138.965663,21.0481539 139.32365,21.8941335 139.32365,22.8440195 C139.32365,23.8532734 138.980579,24.7289364 138.294427,25.4710349 C137.608275,26.2131333 136.728224,26.584177 135.654247,26.584177 C134.58027,26.584177 133.685303,26.2131333 132.969318,25.4710349 L132.969318,25.4710349 Z M138.518171,67.3697038 L132.700825,67.3697038 L132.700825,33.1739783 L138.518171,33.1739783 L138.518171,67.3697038 Z M159.989548,62.2937758 L161.063519,66.4791901 C160.884523,66.538558 160.168549,66.8353929 158.915576,67.3697038 C157.662603,67.9040147 156.051661,68.1711661 154.082704,68.1711661 C151.875084,68.1711661 150.114982,67.414237 148.802343,65.9003562 C147.489704,64.3864754 146.803563,62.4125231 146.743897,59.9784402 L146.743897,19.9053243 L152.382248,19.9053243 L152.382248,57.9302587 C152.382248,59.5331914 152.650739,60.7502146 153.187727,61.5813648 C153.724716,62.4125151 154.97767,62.828084 156.946628,62.828084 C157.841609,62.828084 158.855905,62.649983 159.989548,62.2937758 L159.989548,62.2937758 Z M188.710232,36.7805587 C191.156513,39.481797 192.379635,43.2961258 192.379635,48.2236595 L192.379635,51.3404574 L192.021645,52.0528684 L168.483766,52.0528684 C168.483766,54.9618943 169.58756,57.6630921 171.795179,60.1565429 C173.883468,62.2344186 177.135183,63.2733408 181.550421,63.2733408 C184.474025,63.2733408 187.248424,62.8280884 189.873702,61.9375703 L190.947673,66.212036 C187.308084,67.4587614 183.638718,68.0821147 179.939464,68.0821147 C174.390583,68.0821147 170.154404,66.5979401 167.230799,63.6295463 C164.307195,60.6611525 162.845415,56.4164131 162.845415,50.8952006 C162.845415,45.6708275 164.128202,41.3667211 166.693814,37.9827522 C169.438422,34.4800475 173.286781,32.7287214 178.239009,32.7287214 C182.773578,32.7287214 186.263951,34.0793203 188.710232,36.7805587 L188.710232,36.7805587 Z M184.548592,40.119985 C183.265786,38.220213 181.371439,37.2703412 178.865492,37.2703412 C175.703227,37.2703412 173.286815,38.220213 171.616184,40.119985 C169.945553,42.019757 168.931256,44.4538034 168.573264,47.4221972 L186.472791,47.4221972 C186.472791,44.4538034 185.831398,42.019757 184.548592,40.119985 L184.548592,40.119985 Z M233.048254,21.0184664 C236.479014,23.126026 239.149,25.9904831 241.058293,29.6119235 C242.967585,33.7676748 243.922217,38.1905152 243.922217,42.8805774 C243.922217,47.6893754 242.967585,52.0825323 241.058293,56.06018 C239.149,59.7409883 236.479014,62.6499706 233.048254,64.7872141 C229.617495,66.9244576 225.485728,67.9930634 220.652832,67.9930634 C215.819935,67.9930634 211.718001,66.9244576 208.346907,64.7872141 C204.975812,62.6499706 202.335658,59.7409883 200.426366,56.06018 C198.517074,52.6168432 197.562442,48.2236863 197.562442,42.8805774 C197.562442,37.6562043 198.517074,33.2333639 200.426366,29.6119235 C202.335658,25.9904831 204.975812,23.126026 208.346907,21.0184664 C211.718001,18.9109068 215.819935,17.8571429 220.652832,17.8571429 C225.485728,17.8571429 229.617495,18.9109068 233.048254,21.0184664 L233.048254,21.0184664 Z M229.736842,60.2010686 C232.033959,58.4497163 233.868643,56.0601951 235.240947,53.0324334 C236.672916,50.0640397 237.38889,46.6801215 237.38889,42.8805774 C237.38889,39.1404012 236.672916,35.7564831 235.240947,32.7287214 C232.198012,26.2576229 227.335355,23.0221222 220.652832,23.0221222 C216.953578,23.0221222 213.970353,23.8977853 211.703068,25.6491376 C209.435783,27.4004899 207.586184,29.7603276 206.154215,32.7287214 C204.781911,35.4596437 204.095769,38.8435619 204.095769,42.8805774 C204.095769,46.9769609 204.781911,50.360879 206.154215,53.0324334 C207.586184,56.0601951 209.435783,58.4497163 211.703068,60.2010686 C213.970353,61.952421 216.953578,62.828084 220.652832,62.828084 C224.411751,62.828084 227.439724,61.952421 229.736842,60.2010686 L229.736842,60.2010686 Z M271.97167,39.4075741 C270.86786,38.1608487 268.94368,37.5374953 266.199072,37.5374953 C263.275468,37.5374953 260.11325,38.3389496 256.712323,39.9418823 L256.712323,67.3697038 L250.894976,67.3697038 L250.894976,33.1739783 L254.92237,33.1739783 L256.175337,36.023622 C260.292249,33.7676428 264.319602,32.63967 268.257518,32.63967 C271.897107,32.63967 274.671506,33.6637505 276.580798,35.7119423 C278.49009,37.760134 279.444722,40.5949075 279.444722,44.216348 L279.444722,67.3697038 L273.627376,67.3697038 L273.627376,45.6411699 C273.627376,42.7321439 273.075479,40.6542994 271.97167,39.4075741 L271.97167,39.4075741 Z M300.379113,62.2937758 L301.453084,66.4791901 C301.274088,66.538558 300.558114,66.8353929 299.305141,67.3697038 C298.052168,67.9040147 296.441227,68.1711661 294.472269,68.1711661 C292.264649,68.1711661 290.504547,67.414237 289.191908,65.9003562 C287.87927,64.3864754 287.193128,62.4125231 287.133463,59.9784402 L287.133463,19.9053243 L292.771814,19.9053243 L292.771814,57.9302587 C292.771814,59.5331914 293.040304,60.7502146 293.577292,61.5813648 C294.114281,62.4125151 295.367235,62.828084 297.336193,62.828084 C298.231174,62.828084 299.24547,62.649983 300.379113,62.2937758 L300.379113,62.2937758 Z M314.959171,85.7142857 L308.962829,85.7142857 L315.585654,69.1507312 L301.803018,33.1739783 L307.888858,33.1739783 L318.449579,61.4923135 L329.0103,33.1739783 L334.559153,33.1739783 L314.959171,85.7142857 Z M351.82414,23.3783277 L351.82414,67.3697038 L357.730984,67.3697038 L357.730984,23.3783277 L374.288047,23.3783277 L374.288047,18.3914511 L335.535571,18.3914511 L335.535571,23.3783277 L351.82414,23.3783277 Z M380.858067,63.3623922 C377.964296,60.1565269 376.517432,55.8524205 376.517432,50.4499438 C376.517432,44.9880992 377.994128,40.669151 380.947565,37.4929696 C383.901001,34.3167883 388.002935,32.7287214 393.25349,32.7287214 C398.504044,32.7287214 402.561229,34.3019465 405.425168,37.4484439 C408.289107,40.5949414 409.721055,44.8990478 409.721055,50.3608924 C409.721055,55.7040012 408.229442,60.0081077 405.246173,63.2733408 C402.262903,66.538574 398.175885,68.1711661 392.984997,68.1711661 C387.794108,68.1711661 383.751838,66.5682575 380.858067,63.3623922 L380.858067,63.3623922 Z M385.332949,41.0104987 C383.453489,43.5039495 382.513773,46.6503997 382.513773,50.4499438 C382.513773,54.2494878 383.453489,57.3662545 385.332949,59.8003375 C387.212408,62.2344204 389.852562,63.4514436 393.25349,63.4514436 C396.594751,63.4514436 399.190157,62.2195786 401.039784,59.7558118 C402.889411,57.2920449 403.814211,54.1901199 403.814211,50.4499438 C403.814211,46.6503997 402.874495,43.5039495 400.995035,41.0104987 C399.115575,38.5170479 396.535086,37.2703412 393.25349,37.2703412 C389.852562,37.2703412 387.212408,38.5170479 385.332949,41.0104987 L385.332949,41.0104987 Z M418.886506,63.3623922 C415.992734,60.1565269 414.54587,55.8524205 414.54587,50.4499438 C414.54587,44.9880992 416.022567,40.669151 418.976003,37.4929696 C421.92944,34.3167883 426.031374,32.7287214 431.281928,32.7287214 C436.532483,32.7287214 440.589668,34.3019465 443.453607,37.4484439 C446.317546,40.5949414 447.749494,44.8990478 447.749494,50.3608924 C447.749494,55.7040012 446.257881,60.0081077 443.274612,63.2733408 C440.291342,66.538574 436.204324,68.1711661 431.013436,68.1711661 C425.822547,68.1711661 421.780277,66.5682575 418.886506,63.3623922 L418.886506,63.3623922 Z M423.361388,41.0104987 C421.481928,43.5039495 420.542212,46.6503997 420.542212,50.4499438 C420.542212,54.2494878 421.481928,57.3662545 423.361388,59.8003375 C425.240847,62.2344204 427.881001,63.4514436 431.281928,63.4514436 C434.62319,63.4514436 437.218596,62.2195786 439.068223,59.7558118 C440.91785,57.2920449 441.84265,54.1901199 441.84265,50.4499438 C441.84265,46.6503997 440.902934,43.5039495 439.023474,41.0104987 C437.144014,38.5170479 434.563525,37.2703412 431.281928,37.2703412 C427.881001,37.2703412 425.240847,38.5170479 423.361388,41.0104987 L423.361388,41.0104987 Z M467.430917,62.2937758 L468.504889,66.4791901 C468.325892,66.538558 467.609918,66.8353929 466.356945,67.3697038 C465.103972,67.9040147 463.493031,68.1711661 461.524073,68.1711661 C459.316454,68.1711661 457.556351,67.414237 456.243712,65.9003562 C454.931074,64.3864754 454.244932,62.4125231 454.185267,59.9784402 L454.185267,19.9053243 L459.823618,19.9053243 L459.823618,57.9302587 C459.823618,59.5331914 460.092108,60.7502146 460.629097,61.5813648 C461.166085,62.4125151 462.419039,62.828084 464.387997,62.828084 C465.282978,62.828084 466.297275,62.649983 467.430917,62.2937758 L467.430917,62.2937758 Z M488.052066,62.0711474 C489.513868,61.269681 490.244758,60.0971831 490.244758,58.5536183 C490.244758,57.3068929 489.707777,56.3273376 488.6338,55.6149231 C487.559823,54.9025086 485.292572,53.8339029 481.83198,52.4090739 L478.43107,51.0733033 C476.939435,50.3608888 475.716313,49.7226937 474.761667,49.1586989 C473.80702,48.5947041 472.941885,47.7338828 472.166235,46.5762092 C471.390585,45.4185356 471.002766,43.9492028 471.002766,42.1681665 C471.002766,38.9623012 472.330301,36.5876218 474.985411,35.044057 C477.64052,33.5004922 480.907152,32.7287214 484.785402,32.7287214 C488.066998,32.7287214 491.348545,33.4708087 494.630142,34.9550056 L493.19818,39.2294713 C490.513237,38.1014817 487.917832,37.5374953 485.411885,37.5374953 C482.846274,37.5374953 480.772932,37.908539 479.1918,38.6506374 C477.610667,39.3927359 476.820112,40.4464999 476.820112,41.811961 C476.820112,43.1774222 477.372009,44.2460279 478.475818,45.0178103 C479.579628,45.7895927 481.473976,46.6800974 484.158918,47.6893513 L487.11234,48.8470191 C490.393937,50.2124803 492.69102,51.6372879 494.003658,53.1214848 C495.316297,54.6056817 495.972606,56.5647922 495.972606,58.9988751 C495.972606,61.4923259 494.809149,63.6443791 492.482199,65.4550994 C490.155248,67.2658196 487.052695,68.1711661 483.174444,68.1711661 C478.759206,68.1711661 474.403697,67.3103448 470.107789,65.5886764 L471.718747,61.2251594 C475.596997,62.5906205 479.266364,63.2733408 482.726956,63.2733408 C484.815245,63.2733408 486.590264,62.8726137 488.052066,62.0711474 L488.052066,62.0711474 Z" id="MobileOnlyTools" fill="#73C8A9"></path>
                <path d="M1.78571429,3 L498.214286,3" id="Line" stroke="#3B3F48" stroke-width="6" stroke-linecap="square"></path>
                <path d="M1.78571429,95 L498.214286,95" id="Line-Copy" stroke="#3B3F48" stroke-width="6" stroke-linecap="square"></path>
            </g>
        </g>
    </g>
</svg>